<mxfile host="app.diagrams.net" modified="2023-09-19T22:50:37.841Z" agent="Mozilla/5.0 (Macintosh; Intel Mac OS X 10_15_7) AppleWebKit/537.36 (KHTML, like Gecko) Chrome/116.0.0.0 Safari/537.36" etag="p8KO33R_jyvilWlLD3kg" version="21.7.5" type="github" pages="4">
  <diagram id="TBjuJsZTaPFXJ__ImxRO" name="Proposed HLD">
    <mxGraphModel dx="2924" dy="1126" grid="1" gridSize="10" guides="1" tooltips="1" connect="1" arrows="1" fold="1" page="1" pageScale="1" pageWidth="850" pageHeight="1100" math="0" shadow="0">
      <root>
        <mxCell id="0" />
        <mxCell id="1" parent="0" />
        <mxCell id="PzO3lRKm4pNGHAzejOns-35" value="&lt;font style=&quot;font-size: 16px;&quot;&gt;&lt;b&gt;OpenSearch Cluster&lt;/b&gt;&lt;/font&gt;" style="rounded=0;whiteSpace=wrap;html=1;fontSize=12;dashed=1;verticalAlign=top;fillColor=#f5f5f5;strokeColor=#666666;gradientColor=#b3b3b3;" parent="1" vertex="1">
          <mxGeometry x="70" y="110" width="930" height="480" as="geometry" />
        </mxCell>
        <mxCell id="PzO3lRKm4pNGHAzejOns-14" style="edgeStyle=orthogonalEdgeStyle;rounded=0;orthogonalLoop=1;jettySize=auto;html=1;exitX=0;exitY=0.75;exitDx=0;exitDy=0;entryX=1;entryY=1;entryDx=0;entryDy=0;entryPerimeter=0;fontSize=12;" parent="1" source="PzO3lRKm4pNGHAzejOns-1" target="PzO3lRKm4pNGHAzejOns-6" edge="1">
          <mxGeometry relative="1" as="geometry">
            <Array as="points">
              <mxPoint x="10" y="458" />
              <mxPoint x="10" y="330" />
            </Array>
          </mxGeometry>
        </mxCell>
        <mxCell id="PzO3lRKm4pNGHAzejOns-15" value="8. Search &lt;br&gt;response&amp;nbsp;&lt;br&gt;with normalized&lt;br&gt;and combined&amp;nbsp;&lt;br&gt;results" style="edgeLabel;html=1;align=center;verticalAlign=middle;resizable=0;points=[];fontSize=12;" parent="PzO3lRKm4pNGHAzejOns-14" vertex="1" connectable="0">
          <mxGeometry x="0.0367" y="-1" relative="1" as="geometry">
            <mxPoint as="offset" />
          </mxGeometry>
        </mxCell>
        <mxCell id="PzO3lRKm4pNGHAzejOns-1" value="&lt;b&gt;&lt;font style=&quot;font-size: 14px;&quot;&gt;Coordinator Node&lt;/font&gt;&lt;/b&gt;" style="rounded=0;whiteSpace=wrap;html=1;horizontal=1;verticalAlign=top;dashed=1;fillColor=#d5e8d4;strokeColor=#82b366;gradientColor=#97d077;" parent="1" vertex="1">
          <mxGeometry x="120" y="150" width="210" height="410" as="geometry" />
        </mxCell>
        <mxCell id="PzO3lRKm4pNGHAzejOns-37" style="edgeStyle=orthogonalEdgeStyle;rounded=0;orthogonalLoop=1;jettySize=auto;html=1;exitX=0;exitY=0.5;exitDx=0;exitDy=0;entryX=1;entryY=0.75;entryDx=0;entryDy=0;fontSize=16;" parent="1" source="PzO3lRKm4pNGHAzejOns-2" target="PzO3lRKm4pNGHAzejOns-3" edge="1">
          <mxGeometry relative="1" as="geometry" />
        </mxCell>
        <mxCell id="PzO3lRKm4pNGHAzejOns-38" value="&lt;span style=&quot;font-size: 12px;&quot;&gt;3. Query Results&lt;br&gt;with max, min scores&lt;br&gt;at sub query level&lt;br&gt;&lt;/span&gt;" style="edgeLabel;html=1;align=center;verticalAlign=middle;resizable=0;points=[];fontSize=16;" parent="PzO3lRKm4pNGHAzejOns-37" vertex="1" connectable="0">
          <mxGeometry x="-0.0633" relative="1" as="geometry">
            <mxPoint x="1" y="1" as="offset" />
          </mxGeometry>
        </mxCell>
        <mxCell id="PzO3lRKm4pNGHAzejOns-39" value="7.return source &lt;br&gt;for doc ids" style="edgeStyle=orthogonalEdgeStyle;rounded=0;orthogonalLoop=1;jettySize=auto;html=1;exitX=-0.002;exitY=0.925;exitDx=0;exitDy=0;entryX=1;entryY=0.75;entryDx=0;entryDy=0;fontSize=12;exitPerimeter=0;" parent="1" source="PzO3lRKm4pNGHAzejOns-2" target="PzO3lRKm4pNGHAzejOns-4" edge="1">
          <mxGeometry x="-0.0659" y="-1" relative="1" as="geometry">
            <mxPoint as="offset" />
          </mxGeometry>
        </mxCell>
        <mxCell id="PzO3lRKm4pNGHAzejOns-2" value="&lt;b&gt;&lt;font style=&quot;font-size: 14px;&quot;&gt;Data Nodes&lt;/font&gt;&lt;/b&gt;" style="rounded=0;whiteSpace=wrap;html=1;verticalAlign=top;dashed=1;fillColor=#d5e8d4;strokeColor=#82b366;gradientColor=#97d077;" parent="1" vertex="1">
          <mxGeometry x="540" y="200" width="410" height="320" as="geometry" />
        </mxCell>
        <mxCell id="PzO3lRKm4pNGHAzejOns-10" style="edgeStyle=orthogonalEdgeStyle;rounded=0;orthogonalLoop=1;jettySize=auto;html=1;exitX=1;exitY=0.25;exitDx=0;exitDy=0;entryX=0.25;entryY=0;entryDx=0;entryDy=0;fontSize=14;" parent="1" source="PzO3lRKm4pNGHAzejOns-3" target="PzO3lRKm4pNGHAzejOns-2" edge="1">
          <mxGeometry relative="1" as="geometry" />
        </mxCell>
        <mxCell id="PzO3lRKm4pNGHAzejOns-36" value="&lt;span style=&quot;font-size: 12px;&quot;&gt;2. Execute New &lt;br&gt;Compound Query&lt;/span&gt;" style="edgeLabel;html=1;align=center;verticalAlign=middle;resizable=0;points=[];fontSize=16;" parent="PzO3lRKm4pNGHAzejOns-10" vertex="1" connectable="0">
          <mxGeometry x="-0.1556" y="-1" relative="1" as="geometry">
            <mxPoint x="12" y="-1" as="offset" />
          </mxGeometry>
        </mxCell>
        <mxCell id="PzO3lRKm4pNGHAzejOns-16" style="edgeStyle=orthogonalEdgeStyle;rounded=0;orthogonalLoop=1;jettySize=auto;html=1;exitX=0.5;exitY=1;exitDx=0;exitDy=0;fontSize=12;" parent="1" source="PzO3lRKm4pNGHAzejOns-3" target="PzO3lRKm4pNGHAzejOns-5" edge="1">
          <mxGeometry relative="1" as="geometry" />
        </mxCell>
        <mxCell id="PzO3lRKm4pNGHAzejOns-17" value="4.search result context" style="edgeLabel;html=1;align=center;verticalAlign=middle;resizable=0;points=[];fontSize=12;" parent="PzO3lRKm4pNGHAzejOns-16" vertex="1" connectable="0">
          <mxGeometry x="0.0182" y="1" relative="1" as="geometry">
            <mxPoint as="offset" />
          </mxGeometry>
        </mxCell>
        <mxCell id="PzO3lRKm4pNGHAzejOns-3" value="Search Transport Action" style="rounded=0;whiteSpace=wrap;html=1;fillColor=#ffcd28;strokeColor=#d79b00;gradientColor=#ffa500;" parent="1" vertex="1">
          <mxGeometry x="165" y="210" width="120" height="60" as="geometry" />
        </mxCell>
        <mxCell id="PzO3lRKm4pNGHAzejOns-21" style="edgeStyle=orthogonalEdgeStyle;rounded=0;orthogonalLoop=1;jettySize=auto;html=1;exitX=1;exitY=0.25;exitDx=0;exitDy=0;entryX=0;entryY=0.75;entryDx=0;entryDy=0;fontSize=12;" parent="1" source="PzO3lRKm4pNGHAzejOns-4" target="PzO3lRKm4pNGHAzejOns-2" edge="1">
          <mxGeometry relative="1" as="geometry" />
        </mxCell>
        <mxCell id="PzO3lRKm4pNGHAzejOns-22" value="6. Fetch Source" style="edgeLabel;html=1;align=center;verticalAlign=middle;resizable=0;points=[];fontSize=12;" parent="PzO3lRKm4pNGHAzejOns-21" vertex="1" connectable="0">
          <mxGeometry x="-0.5065" y="1" relative="1" as="geometry">
            <mxPoint x="46" y="-14" as="offset" />
          </mxGeometry>
        </mxCell>
        <mxCell id="PzO3lRKm4pNGHAzejOns-4" value="Fetch Phase" style="rounded=0;whiteSpace=wrap;html=1;fillColor=#ffcd28;strokeColor=#d79b00;gradientColor=#ffa500;" parent="1" vertex="1">
          <mxGeometry x="165" y="450" width="120" height="60" as="geometry" />
        </mxCell>
        <mxCell id="PzO3lRKm4pNGHAzejOns-18" style="edgeStyle=orthogonalEdgeStyle;rounded=0;orthogonalLoop=1;jettySize=auto;html=1;exitX=0.5;exitY=1;exitDx=0;exitDy=0;fontSize=12;" parent="1" source="PzO3lRKm4pNGHAzejOns-5" target="PzO3lRKm4pNGHAzejOns-4" edge="1">
          <mxGeometry relative="1" as="geometry" />
        </mxCell>
        <mxCell id="PzO3lRKm4pNGHAzejOns-19" value="5. transformed search results&lt;br&gt;after doing normalization" style="edgeLabel;html=1;align=center;verticalAlign=middle;resizable=0;points=[];fontSize=12;" parent="PzO3lRKm4pNGHAzejOns-18" vertex="1" connectable="0">
          <mxGeometry x="-0.0462" relative="1" as="geometry">
            <mxPoint as="offset" />
          </mxGeometry>
        </mxCell>
        <mxCell id="PzO3lRKm4pNGHAzejOns-5" value="Search Pipeline Phase Transformer" style="rounded=0;whiteSpace=wrap;html=1;fillColor=#f8cecc;strokeColor=#b85450;gradientColor=#ea6b66;" parent="1" vertex="1">
          <mxGeometry x="165" y="325" width="120" height="60" as="geometry" />
        </mxCell>
        <mxCell id="PzO3lRKm4pNGHAzejOns-7" style="edgeStyle=orthogonalEdgeStyle;rounded=0;orthogonalLoop=1;jettySize=auto;html=1;exitX=0.5;exitY=0.5;exitDx=0;exitDy=0;exitPerimeter=0;entryX=0;entryY=0.25;entryDx=0;entryDy=0;" parent="1" source="PzO3lRKm4pNGHAzejOns-6" target="PzO3lRKm4pNGHAzejOns-1" edge="1">
          <mxGeometry relative="1" as="geometry" />
        </mxCell>
        <mxCell id="PzO3lRKm4pNGHAzejOns-12" value="&lt;font style=&quot;font-size: 12px;&quot;&gt;1. _search&lt;/font&gt;" style="edgeLabel;html=1;align=center;verticalAlign=middle;resizable=0;points=[];fontSize=14;labelBackgroundColor=none;" parent="PzO3lRKm4pNGHAzejOns-7" vertex="1" connectable="0">
          <mxGeometry x="0.0843" relative="1" as="geometry">
            <mxPoint as="offset" />
          </mxGeometry>
        </mxCell>
        <mxCell id="PzO3lRKm4pNGHAzejOns-6" value="Clients" style="shape=umlActor;verticalLabelPosition=bottom;verticalAlign=top;html=1;outlineConnect=0;" parent="1" vertex="1">
          <mxGeometry x="-120" y="270" width="30" height="60" as="geometry" />
        </mxCell>
        <mxCell id="PzO3lRKm4pNGHAzejOns-27" style="edgeStyle=orthogonalEdgeStyle;rounded=0;orthogonalLoop=1;jettySize=auto;html=1;exitX=1;exitY=0.25;exitDx=0;exitDy=0;entryX=0;entryY=0;entryDx=0;entryDy=31.25;entryPerimeter=0;fontSize=12;" parent="1" source="PzO3lRKm4pNGHAzejOns-8" target="PzO3lRKm4pNGHAzejOns-25" edge="1">
          <mxGeometry relative="1" as="geometry" />
        </mxCell>
        <mxCell id="PzO3lRKm4pNGHAzejOns-31" value="SubQuery 1" style="edgeLabel;html=1;align=center;verticalAlign=middle;resizable=0;points=[];fontSize=12;" parent="PzO3lRKm4pNGHAzejOns-27" vertex="1" connectable="0">
          <mxGeometry x="0.0648" y="1" relative="1" as="geometry">
            <mxPoint as="offset" />
          </mxGeometry>
        </mxCell>
        <mxCell id="PzO3lRKm4pNGHAzejOns-28" style="edgeStyle=orthogonalEdgeStyle;rounded=0;orthogonalLoop=1;jettySize=auto;html=1;exitX=1;exitY=0.75;exitDx=0;exitDy=0;entryX=0;entryY=0;entryDx=0;entryDy=63.75;entryPerimeter=0;fontSize=12;" parent="1" source="PzO3lRKm4pNGHAzejOns-8" target="PzO3lRKm4pNGHAzejOns-25" edge="1">
          <mxGeometry relative="1" as="geometry" />
        </mxCell>
        <mxCell id="PzO3lRKm4pNGHAzejOns-32" value="SubQuery 2" style="edgeLabel;html=1;align=center;verticalAlign=middle;resizable=0;points=[];fontSize=12;" parent="PzO3lRKm4pNGHAzejOns-28" vertex="1" connectable="0">
          <mxGeometry x="-0.0656" y="-2" relative="1" as="geometry">
            <mxPoint as="offset" />
          </mxGeometry>
        </mxCell>
        <mxCell id="PzO3lRKm4pNGHAzejOns-8" value="&lt;font style=&quot;font-size: 12px;&quot;&gt;Data Node-1&lt;/font&gt;" style="rounded=0;whiteSpace=wrap;html=1;fontSize=14;fillColor=#e6d0de;strokeColor=#996185;gradientColor=#d5739d;verticalAlign=top;" parent="1" vertex="1">
          <mxGeometry x="550" y="220" width="160" height="110" as="geometry" />
        </mxCell>
        <mxCell id="PzO3lRKm4pNGHAzejOns-29" style="edgeStyle=orthogonalEdgeStyle;rounded=0;orthogonalLoop=1;jettySize=auto;html=1;exitX=1;exitY=0.25;exitDx=0;exitDy=0;entryX=0;entryY=0;entryDx=0;entryDy=31.25;entryPerimeter=0;fontSize=12;" parent="1" source="PzO3lRKm4pNGHAzejOns-9" target="PzO3lRKm4pNGHAzejOns-26" edge="1">
          <mxGeometry relative="1" as="geometry" />
        </mxCell>
        <mxCell id="PzO3lRKm4pNGHAzejOns-33" value="SubQuery 1" style="edgeLabel;html=1;align=center;verticalAlign=middle;resizable=0;points=[];fontSize=12;" parent="PzO3lRKm4pNGHAzejOns-29" vertex="1" connectable="0">
          <mxGeometry x="-0.0563" y="1" relative="1" as="geometry">
            <mxPoint as="offset" />
          </mxGeometry>
        </mxCell>
        <mxCell id="PzO3lRKm4pNGHAzejOns-30" style="edgeStyle=orthogonalEdgeStyle;rounded=0;orthogonalLoop=1;jettySize=auto;html=1;exitX=1;exitY=0.75;exitDx=0;exitDy=0;entryX=0;entryY=0;entryDx=0;entryDy=63.75;entryPerimeter=0;fontSize=12;" parent="1" source="PzO3lRKm4pNGHAzejOns-9" target="PzO3lRKm4pNGHAzejOns-26" edge="1">
          <mxGeometry relative="1" as="geometry" />
        </mxCell>
        <mxCell id="PzO3lRKm4pNGHAzejOns-34" value="SubQuery 2" style="edgeLabel;html=1;align=center;verticalAlign=middle;resizable=0;points=[];fontSize=12;" parent="PzO3lRKm4pNGHAzejOns-30" vertex="1" connectable="0">
          <mxGeometry x="-0.1451" relative="1" as="geometry">
            <mxPoint as="offset" />
          </mxGeometry>
        </mxCell>
        <mxCell id="PzO3lRKm4pNGHAzejOns-9" value="&lt;font style=&quot;font-size: 12px;&quot;&gt;Data Node-2&lt;/font&gt;" style="rounded=0;whiteSpace=wrap;html=1;fontSize=14;fillColor=#e6d0de;strokeColor=#996185;gradientColor=#d5739d;verticalAlign=top;" parent="1" vertex="1">
          <mxGeometry x="550" y="370" width="160" height="110" as="geometry" />
        </mxCell>
        <mxCell id="PzO3lRKm4pNGHAzejOns-25" value="Segments" style="shape=cylinder3;whiteSpace=wrap;html=1;boundedLbl=1;backgroundOutline=1;size=15;fontSize=12;fillColor=#fff2cc;strokeColor=#d6b656;gradientColor=#ffd966;" parent="1" vertex="1">
          <mxGeometry x="820" y="252.5" width="90" height="95" as="geometry" />
        </mxCell>
        <mxCell id="PzO3lRKm4pNGHAzejOns-26" value="Segments" style="shape=cylinder3;whiteSpace=wrap;html=1;boundedLbl=1;backgroundOutline=1;size=15;fontSize=12;fillColor=#fff2cc;strokeColor=#d6b656;gradientColor=#ffd966;" parent="1" vertex="1">
          <mxGeometry x="820" y="370" width="90" height="95" as="geometry" />
        </mxCell>
        <mxCell id="PzO3lRKm4pNGHAzejOns-42" value="&lt;b&gt;&lt;font style=&quot;font-size: 14px;&quot;&gt;Legends&lt;/font&gt;&lt;/b&gt;" style="rounded=0;whiteSpace=wrap;html=1;dashed=1;dashPattern=1 1;fontSize=12;verticalAlign=top;fillColor=#f5f5f5;strokeColor=#666666;gradientColor=#b3b3b3;" parent="1" vertex="1">
          <mxGeometry x="380" y="600" width="250" height="160" as="geometry" />
        </mxCell>
        <mxCell id="PzO3lRKm4pNGHAzejOns-43" value="" style="rounded=0;whiteSpace=wrap;html=1;dashed=1;dashPattern=1 1;fontSize=12;fillColor=#e6d0de;strokeColor=#996185;gradientColor=#d5739d;" parent="1" vertex="1">
          <mxGeometry x="393" y="637" width="30" height="20" as="geometry" />
        </mxCell>
        <mxCell id="PzO3lRKm4pNGHAzejOns-46" value="Major Changes in components" style="text;html=1;strokeColor=none;fillColor=none;align=left;verticalAlign=middle;whiteSpace=wrap;rounded=0;dashed=1;dashPattern=1 1;fontSize=12;" parent="1" vertex="1">
          <mxGeometry x="433" y="632" width="170" height="30" as="geometry" />
        </mxCell>
        <mxCell id="PzO3lRKm4pNGHAzejOns-47" value="" style="rounded=0;whiteSpace=wrap;html=1;dashed=1;dashPattern=1 1;fontSize=12;fillColor=#f8cecc;strokeColor=#b85450;gradientColor=#ea6b66;" parent="1" vertex="1">
          <mxGeometry x="393" y="677" width="30" height="20" as="geometry" />
        </mxCell>
        <mxCell id="PzO3lRKm4pNGHAzejOns-48" value="New Component to be added" style="text;html=1;strokeColor=none;fillColor=none;align=left;verticalAlign=middle;whiteSpace=wrap;rounded=0;dashed=1;dashPattern=1 1;fontSize=12;" parent="1" vertex="1">
          <mxGeometry x="433" y="672" width="170" height="30" as="geometry" />
        </mxCell>
        <mxCell id="PzO3lRKm4pNGHAzejOns-51" value="" style="rounded=0;whiteSpace=wrap;html=1;dashed=1;dashPattern=1 1;fontSize=12;fillColor=#ffcd28;strokeColor=#d79b00;gradientColor=#ffa500;" parent="1" vertex="1">
          <mxGeometry x="393" y="717" width="30" height="20" as="geometry" />
        </mxCell>
        <mxCell id="PzO3lRKm4pNGHAzejOns-52" value="No changes expected" style="text;html=1;strokeColor=none;fillColor=none;align=left;verticalAlign=middle;whiteSpace=wrap;rounded=0;dashed=1;dashPattern=1 1;fontSize=12;" parent="1" vertex="1">
          <mxGeometry x="433" y="712" width="170" height="30" as="geometry" />
        </mxCell>
        <mxCell id="ij_7rNNwFZW_53Z0E1Qg-1" value="Query Phase&lt;br style=&quot;border-color: var(--border-color);&quot;&gt;with new QueryPhaseSearcher" style="rounded=0;whiteSpace=wrap;html=1;dashed=1;labelBackgroundColor=none;fontSize=12;gradientColor=#d5739d;fillColor=#e6d0de;strokeColor=#996185;" parent="1" vertex="1">
          <mxGeometry x="570" y="260" width="120" height="60" as="geometry" />
        </mxCell>
        <mxCell id="ij_7rNNwFZW_53Z0E1Qg-2" value="Query Phase&lt;br style=&quot;border-color: var(--border-color);&quot;&gt;with new QueryPhaseSearcher" style="rounded=0;whiteSpace=wrap;html=1;dashed=1;labelBackgroundColor=none;fontSize=12;gradientColor=#d5739d;fillColor=#e6d0de;strokeColor=#996185;" parent="1" vertex="1">
          <mxGeometry x="570" y="410" width="120" height="60" as="geometry" />
        </mxCell>
      </root>
    </mxGraphModel>
  </diagram>
  <diagram id="07KiL_tyBuep2GjcEZaf" name="Current HLD">
    <mxGraphModel dx="2924" dy="1132" grid="1" gridSize="10" guides="1" tooltips="1" connect="1" arrows="1" fold="1" page="1" pageScale="1" pageWidth="850" pageHeight="1100" math="0" shadow="0">
      <root>
        <mxCell id="0" />
        <mxCell id="1" parent="0" />
        <mxCell id="jDZvlSN3qei6vhp4ze15-1" value="&lt;font style=&quot;font-size: 16px;&quot;&gt;&lt;b&gt;OpenSearch Cluster&lt;/b&gt;&lt;/font&gt;" style="rounded=0;whiteSpace=wrap;html=1;fontSize=12;dashed=1;verticalAlign=top;fillColor=#f5f5f5;strokeColor=#666666;gradientColor=#b3b3b3;" parent="1" vertex="1">
          <mxGeometry x="70" y="110" width="1090" height="440" as="geometry" />
        </mxCell>
        <mxCell id="jDZvlSN3qei6vhp4ze15-2" style="edgeStyle=orthogonalEdgeStyle;rounded=0;orthogonalLoop=1;jettySize=auto;html=1;exitX=0;exitY=0.75;exitDx=0;exitDy=0;entryX=1;entryY=1;entryDx=0;entryDy=0;entryPerimeter=0;fontSize=12;" parent="1" source="jDZvlSN3qei6vhp4ze15-4" target="jDZvlSN3qei6vhp4ze15-22" edge="1">
          <mxGeometry relative="1" as="geometry">
            <Array as="points">
              <mxPoint x="120" y="410" />
              <mxPoint x="10" y="410" />
              <mxPoint x="10" y="330" />
            </Array>
          </mxGeometry>
        </mxCell>
        <mxCell id="jDZvlSN3qei6vhp4ze15-3" value="7. Search &lt;br&gt;response&amp;nbsp;" style="edgeLabel;html=1;align=center;verticalAlign=middle;resizable=0;points=[];fontSize=12;" parent="jDZvlSN3qei6vhp4ze15-2" vertex="1" connectable="0">
          <mxGeometry x="0.0367" y="-1" relative="1" as="geometry">
            <mxPoint as="offset" />
          </mxGeometry>
        </mxCell>
        <mxCell id="jDZvlSN3qei6vhp4ze15-4" value="&lt;b&gt;&lt;font style=&quot;font-size: 14px;&quot;&gt;Coordinator Node&lt;/font&gt;&lt;/b&gt;" style="rounded=0;whiteSpace=wrap;html=1;horizontal=1;verticalAlign=top;dashed=1;fillColor=#d5e8d4;strokeColor=#82b366;gradientColor=#97d077;" parent="1" vertex="1">
          <mxGeometry x="120" y="150" width="210" height="350" as="geometry" />
        </mxCell>
        <mxCell id="jDZvlSN3qei6vhp4ze15-5" style="edgeStyle=orthogonalEdgeStyle;rounded=0;orthogonalLoop=1;jettySize=auto;html=1;exitX=0;exitY=0.5;exitDx=0;exitDy=0;entryX=1;entryY=0.75;entryDx=0;entryDy=0;fontSize=16;" parent="1" source="jDZvlSN3qei6vhp4ze15-8" target="jDZvlSN3qei6vhp4ze15-13" edge="1">
          <mxGeometry relative="1" as="geometry" />
        </mxCell>
        <mxCell id="jDZvlSN3qei6vhp4ze15-6" value="&lt;span style=&quot;font-size: 12px;&quot;&gt;3.Query Results&lt;br&gt;&lt;/span&gt;" style="edgeLabel;html=1;align=center;verticalAlign=middle;resizable=0;points=[];fontSize=16;" parent="jDZvlSN3qei6vhp4ze15-5" vertex="1" connectable="0">
          <mxGeometry x="-0.0633" relative="1" as="geometry">
            <mxPoint x="1" y="1" as="offset" />
          </mxGeometry>
        </mxCell>
        <mxCell id="jDZvlSN3qei6vhp4ze15-7" value="6.return source &lt;br&gt;for doc ids" style="edgeStyle=orthogonalEdgeStyle;rounded=0;orthogonalLoop=1;jettySize=auto;html=1;exitX=-0.002;exitY=0.925;exitDx=0;exitDy=0;entryX=1;entryY=0.75;entryDx=0;entryDy=0;fontSize=12;exitPerimeter=0;" parent="1" source="jDZvlSN3qei6vhp4ze15-8" target="jDZvlSN3qei6vhp4ze15-16" edge="1">
          <mxGeometry x="-0.0659" y="-1" relative="1" as="geometry">
            <mxPoint as="offset" />
          </mxGeometry>
        </mxCell>
        <mxCell id="jDZvlSN3qei6vhp4ze15-8" value="&lt;b&gt;&lt;font style=&quot;font-size: 14px;&quot;&gt;Data Nodes&lt;/font&gt;&lt;/b&gt;" style="rounded=0;whiteSpace=wrap;html=1;verticalAlign=top;dashed=1;fillColor=#d5e8d4;strokeColor=#82b366;gradientColor=#97d077;" parent="1" vertex="1">
          <mxGeometry x="540" y="200" width="580" height="320" as="geometry" />
        </mxCell>
        <mxCell id="jDZvlSN3qei6vhp4ze15-9" style="edgeStyle=orthogonalEdgeStyle;rounded=0;orthogonalLoop=1;jettySize=auto;html=1;exitX=1;exitY=0.25;exitDx=0;exitDy=0;entryX=0.25;entryY=0;entryDx=0;entryDy=0;fontSize=14;" parent="1" source="jDZvlSN3qei6vhp4ze15-13" target="jDZvlSN3qei6vhp4ze15-8" edge="1">
          <mxGeometry relative="1" as="geometry" />
        </mxCell>
        <mxCell id="jDZvlSN3qei6vhp4ze15-10" value="&lt;span style=&quot;font-size: 12px;&quot;&gt;2. Execute&amp;nbsp;Query&lt;/span&gt;" style="edgeLabel;html=1;align=center;verticalAlign=middle;resizable=0;points=[];fontSize=16;" parent="jDZvlSN3qei6vhp4ze15-9" vertex="1" connectable="0">
          <mxGeometry x="-0.1556" y="-1" relative="1" as="geometry">
            <mxPoint x="12" y="-1" as="offset" />
          </mxGeometry>
        </mxCell>
        <mxCell id="jDZvlSN3qei6vhp4ze15-11" style="edgeStyle=orthogonalEdgeStyle;rounded=0;orthogonalLoop=1;jettySize=auto;html=1;exitX=0.5;exitY=1;exitDx=0;exitDy=0;fontSize=12;entryX=0.5;entryY=0;entryDx=0;entryDy=0;" parent="1" source="jDZvlSN3qei6vhp4ze15-13" target="jDZvlSN3qei6vhp4ze15-16" edge="1">
          <mxGeometry relative="1" as="geometry">
            <mxPoint x="225" y="325" as="targetPoint" />
          </mxGeometry>
        </mxCell>
        <mxCell id="jDZvlSN3qei6vhp4ze15-12" value="4.search result context" style="edgeLabel;html=1;align=center;verticalAlign=middle;resizable=0;points=[];fontSize=12;" parent="jDZvlSN3qei6vhp4ze15-11" vertex="1" connectable="0">
          <mxGeometry x="0.0182" y="1" relative="1" as="geometry">
            <mxPoint as="offset" />
          </mxGeometry>
        </mxCell>
        <mxCell id="jDZvlSN3qei6vhp4ze15-13" value="Search Transport Action" style="rounded=0;whiteSpace=wrap;html=1;fillColor=#ffcd28;strokeColor=#d79b00;gradientColor=#ffa500;" parent="1" vertex="1">
          <mxGeometry x="165" y="210" width="120" height="60" as="geometry" />
        </mxCell>
        <mxCell id="jDZvlSN3qei6vhp4ze15-14" value="5. Fetch Source" style="edgeStyle=orthogonalEdgeStyle;rounded=0;orthogonalLoop=1;jettySize=auto;html=1;exitX=1;exitY=0.25;exitDx=0;exitDy=0;entryX=0;entryY=0.75;entryDx=0;entryDy=0;fontSize=12;" parent="1" source="jDZvlSN3qei6vhp4ze15-16" target="jDZvlSN3qei6vhp4ze15-8" edge="1">
          <mxGeometry relative="1" as="geometry" />
        </mxCell>
        <mxCell id="jDZvlSN3qei6vhp4ze15-16" value="Fetch Phase" style="rounded=0;whiteSpace=wrap;html=1;fillColor=#ffcd28;strokeColor=#d79b00;gradientColor=#ffa500;" parent="1" vertex="1">
          <mxGeometry x="165" y="410" width="120" height="60" as="geometry" />
        </mxCell>
        <mxCell id="jDZvlSN3qei6vhp4ze15-20" style="edgeStyle=orthogonalEdgeStyle;rounded=0;orthogonalLoop=1;jettySize=auto;html=1;exitX=0.5;exitY=0.5;exitDx=0;exitDy=0;exitPerimeter=0;entryX=0;entryY=0.25;entryDx=0;entryDy=0;" parent="1" source="jDZvlSN3qei6vhp4ze15-22" target="jDZvlSN3qei6vhp4ze15-4" edge="1">
          <mxGeometry relative="1" as="geometry" />
        </mxCell>
        <mxCell id="jDZvlSN3qei6vhp4ze15-21" value="&lt;font style=&quot;font-size: 12px;&quot;&gt;1. _search&lt;/font&gt;" style="edgeLabel;html=1;align=center;verticalAlign=middle;resizable=0;points=[];fontSize=14;labelBackgroundColor=none;" parent="jDZvlSN3qei6vhp4ze15-20" vertex="1" connectable="0">
          <mxGeometry x="0.0843" relative="1" as="geometry">
            <mxPoint as="offset" />
          </mxGeometry>
        </mxCell>
        <mxCell id="jDZvlSN3qei6vhp4ze15-22" value="Clients" style="shape=umlActor;verticalLabelPosition=bottom;verticalAlign=top;html=1;outlineConnect=0;" parent="1" vertex="1">
          <mxGeometry x="-120" y="270" width="30" height="60" as="geometry" />
        </mxCell>
        <mxCell id="jDZvlSN3qei6vhp4ze15-48" value="search" style="edgeStyle=orthogonalEdgeStyle;rounded=0;orthogonalLoop=1;jettySize=auto;html=1;exitX=1;exitY=0.5;exitDx=0;exitDy=0;entryX=0;entryY=0.5;entryDx=0;entryDy=0;fontSize=12;" parent="1" source="jDZvlSN3qei6vhp4ze15-27" target="jDZvlSN3qei6vhp4ze15-45" edge="1">
          <mxGeometry relative="1" as="geometry" />
        </mxCell>
        <mxCell id="jDZvlSN3qei6vhp4ze15-27" value="&lt;font style=&quot;font-size: 12px;&quot;&gt;Data Node-1&lt;/font&gt;" style="rounded=0;whiteSpace=wrap;html=1;fontSize=14;fillColor=#ffcd28;strokeColor=#d79b00;gradientColor=#ffa500;verticalAlign=top;" parent="1" vertex="1">
          <mxGeometry x="560" y="245" width="110" height="60" as="geometry" />
        </mxCell>
        <mxCell id="jDZvlSN3qei6vhp4ze15-49" value="search" style="edgeStyle=orthogonalEdgeStyle;rounded=0;orthogonalLoop=1;jettySize=auto;html=1;exitX=1;exitY=0.5;exitDx=0;exitDy=0;fontSize=12;" parent="1" source="jDZvlSN3qei6vhp4ze15-32" target="jDZvlSN3qei6vhp4ze15-46" edge="1">
          <mxGeometry relative="1" as="geometry" />
        </mxCell>
        <mxCell id="jDZvlSN3qei6vhp4ze15-32" value="&lt;font style=&quot;font-size: 12px;&quot;&gt;Data Node-2&lt;/font&gt;" style="rounded=0;whiteSpace=wrap;html=1;fontSize=14;fillColor=#ffcd28;strokeColor=#d79b00;gradientColor=#ffa500;verticalAlign=top;" parent="1" vertex="1">
          <mxGeometry x="560" y="390" width="110" height="60" as="geometry" />
        </mxCell>
        <mxCell id="jDZvlSN3qei6vhp4ze15-33" value="Segments" style="shape=cylinder3;whiteSpace=wrap;html=1;boundedLbl=1;backgroundOutline=1;size=15;fontSize=12;fillColor=#e6d0de;strokeColor=#996185;gradientColor=#d5739d;" parent="1" vertex="1">
          <mxGeometry x="1000" y="227.5" width="90" height="95" as="geometry" />
        </mxCell>
        <mxCell id="jDZvlSN3qei6vhp4ze15-34" value="Segments" style="shape=cylinder3;whiteSpace=wrap;html=1;boundedLbl=1;backgroundOutline=1;size=15;fontSize=12;fillColor=#e6d0de;strokeColor=#996185;gradientColor=#d5739d;" parent="1" vertex="1">
          <mxGeometry x="1000" y="377" width="90" height="95" as="geometry" />
        </mxCell>
        <mxCell id="jDZvlSN3qei6vhp4ze15-35" value="&lt;b&gt;&lt;font style=&quot;font-size: 14px;&quot;&gt;Legends&lt;/font&gt;&lt;/b&gt;" style="rounded=0;whiteSpace=wrap;html=1;dashed=1;dashPattern=1 1;fontSize=12;verticalAlign=top;fillColor=#f5f5f5;strokeColor=#666666;gradientColor=#b3b3b3;" parent="1" vertex="1">
          <mxGeometry x="370" y="590" width="270" height="120" as="geometry" />
        </mxCell>
        <mxCell id="jDZvlSN3qei6vhp4ze15-36" value="" style="rounded=0;whiteSpace=wrap;html=1;dashed=1;dashPattern=1 1;fontSize=12;fillColor=#e6d0de;strokeColor=#996185;gradientColor=#d5739d;" parent="1" vertex="1">
          <mxGeometry x="383" y="627" width="30" height="20" as="geometry" />
        </mxCell>
        <mxCell id="jDZvlSN3qei6vhp4ze15-37" value="Outside Opensearch Components" style="text;html=1;strokeColor=none;fillColor=none;align=left;verticalAlign=middle;whiteSpace=wrap;rounded=0;dashed=1;dashPattern=1 1;fontSize=12;" parent="1" vertex="1">
          <mxGeometry x="423" y="622" width="187" height="30" as="geometry" />
        </mxCell>
        <mxCell id="jDZvlSN3qei6vhp4ze15-38" value="" style="rounded=0;whiteSpace=wrap;html=1;dashed=1;dashPattern=1 1;fontSize=12;fillColor=#ffcd28;strokeColor=#d79b00;gradientColor=#ffa500;" parent="1" vertex="1">
          <mxGeometry x="383" y="667" width="30" height="20" as="geometry" />
        </mxCell>
        <mxCell id="jDZvlSN3qei6vhp4ze15-39" value="Internal OpenSearch Components" style="text;html=1;strokeColor=none;fillColor=none;align=left;verticalAlign=middle;whiteSpace=wrap;rounded=0;dashed=1;dashPattern=1 1;fontSize=12;" parent="1" vertex="1">
          <mxGeometry x="423" y="662" width="187" height="30" as="geometry" />
        </mxCell>
        <mxCell id="jDZvlSN3qei6vhp4ze15-50" style="edgeStyle=orthogonalEdgeStyle;rounded=0;orthogonalLoop=1;jettySize=auto;html=1;exitX=1;exitY=0.5;exitDx=0;exitDy=0;entryX=0;entryY=0.5;entryDx=0;entryDy=0;entryPerimeter=0;fontSize=12;" parent="1" source="jDZvlSN3qei6vhp4ze15-45" target="jDZvlSN3qei6vhp4ze15-33" edge="1">
          <mxGeometry relative="1" as="geometry" />
        </mxCell>
        <mxCell id="jDZvlSN3qei6vhp4ze15-45" value="Lucene (Index Searcher with Collectors)" style="rounded=0;whiteSpace=wrap;html=1;labelBackgroundColor=none;fontSize=12;fillColor=#e6d0de;strokeColor=#996185;gradientColor=#d5739d;" parent="1" vertex="1">
          <mxGeometry x="810" y="245" width="120" height="60" as="geometry" />
        </mxCell>
        <mxCell id="jDZvlSN3qei6vhp4ze15-51" style="edgeStyle=orthogonalEdgeStyle;rounded=0;orthogonalLoop=1;jettySize=auto;html=1;exitX=1;exitY=0.5;exitDx=0;exitDy=0;fontSize=12;" parent="1" source="jDZvlSN3qei6vhp4ze15-46" target="jDZvlSN3qei6vhp4ze15-34" edge="1">
          <mxGeometry relative="1" as="geometry" />
        </mxCell>
        <mxCell id="jDZvlSN3qei6vhp4ze15-46" value="Lucene (Index Searcher with Collectors)" style="rounded=0;whiteSpace=wrap;html=1;labelBackgroundColor=none;fontSize=12;gradientColor=#d5739d;fillColor=#e6d0de;strokeColor=#996185;" parent="1" vertex="1">
          <mxGeometry x="810" y="394.5" width="120" height="60" as="geometry" />
        </mxCell>
      </root>
    </mxGraphModel>
  </diagram>
  <diagram id="tnmOnSMShi_SFa9VDgJG" name="Search Processor Flow">
    <mxGraphModel dx="2074" dy="1132" grid="1" gridSize="10" guides="1" tooltips="1" connect="1" arrows="1" fold="1" page="1" pageScale="1" pageWidth="850" pageHeight="1100" math="0" shadow="0">
      <root>
        <mxCell id="0" />
        <mxCell id="1" parent="0" />
        <mxCell id="G0X934RZBwC8TlWntgK0-30" value="" style="rounded=0;whiteSpace=wrap;html=1;dashed=1;fillColor=#dae8fc;strokeColor=#6c8ebf;gradientColor=#7ea6e0;" vertex="1" parent="1">
          <mxGeometry x="110" y="870" width="550" height="660" as="geometry" />
        </mxCell>
        <mxCell id="G0X934RZBwC8TlWntgK0-29" value="" style="rounded=0;whiteSpace=wrap;html=1;dashed=1;fillColor=#fff2cc;strokeColor=#d6b656;gradientColor=#ffd966;" vertex="1" parent="1">
          <mxGeometry x="110" y="620" width="550" height="240" as="geometry" />
        </mxCell>
        <mxCell id="G0X934RZBwC8TlWntgK0-28" value="" style="rounded=0;whiteSpace=wrap;html=1;dashed=1;fillColor=#dae8fc;strokeColor=#6c8ebf;gradientColor=#7ea6e0;" vertex="1" parent="1">
          <mxGeometry x="110" y="290" width="550" height="320" as="geometry" />
        </mxCell>
        <mxCell id="xSZ6R9SKHqUaPnc-6ZZc-3" style="edgeStyle=orthogonalEdgeStyle;rounded=0;orthogonalLoop=1;jettySize=auto;html=1;exitX=0.5;exitY=1;exitDx=0;exitDy=0;exitPerimeter=0;" parent="1" source="xSZ6R9SKHqUaPnc-6ZZc-1" target="xSZ6R9SKHqUaPnc-6ZZc-2" edge="1">
          <mxGeometry relative="1" as="geometry" />
        </mxCell>
        <mxCell id="xSZ6R9SKHqUaPnc-6ZZc-4" value="Search Request" style="edgeLabel;html=1;align=center;verticalAlign=middle;resizable=0;points=[];" parent="xSZ6R9SKHqUaPnc-6ZZc-3" vertex="1" connectable="0">
          <mxGeometry x="-0.2545" y="-4" relative="1" as="geometry">
            <mxPoint as="offset" />
          </mxGeometry>
        </mxCell>
        <mxCell id="xSZ6R9SKHqUaPnc-6ZZc-1" value="Start" style="strokeWidth=2;html=1;shape=mxgraph.flowchart.start_1;whiteSpace=wrap;" parent="1" vertex="1">
          <mxGeometry x="325" y="190" width="100" height="60" as="geometry" />
        </mxCell>
        <mxCell id="G0X934RZBwC8TlWntgK0-1" style="edgeStyle=orthogonalEdgeStyle;rounded=0;orthogonalLoop=1;jettySize=auto;html=1;exitX=0.5;exitY=1;exitDx=0;exitDy=0;entryX=0.5;entryY=0;entryDx=0;entryDy=0;" edge="1" parent="1" source="xSZ6R9SKHqUaPnc-6ZZc-2" target="xSZ6R9SKHqUaPnc-6ZZc-5">
          <mxGeometry relative="1" as="geometry" />
        </mxCell>
        <mxCell id="xSZ6R9SKHqUaPnc-6ZZc-2" value="Search Action" style="rounded=1;whiteSpace=wrap;html=1;absoluteArcSize=1;arcSize=14;strokeWidth=2;fillColor=#d5e8d4;gradientColor=#97d077;strokeColor=#82b366;" parent="1" vertex="1">
          <mxGeometry x="325" y="320" width="100" height="100" as="geometry" />
        </mxCell>
        <mxCell id="G0X934RZBwC8TlWntgK0-7" style="edgeStyle=orthogonalEdgeStyle;rounded=0;orthogonalLoop=1;jettySize=auto;html=1;exitX=0.5;exitY=1;exitDx=0;exitDy=0;" edge="1" parent="1" source="xSZ6R9SKHqUaPnc-6ZZc-5" target="G0X934RZBwC8TlWntgK0-4">
          <mxGeometry relative="1" as="geometry" />
        </mxCell>
        <mxCell id="obCtLTbMXupayQUvTKE5-13" value="Run Query" style="edgeLabel;html=1;align=center;verticalAlign=middle;resizable=0;points=[];" vertex="1" connectable="0" parent="G0X934RZBwC8TlWntgK0-7">
          <mxGeometry x="0.7579" y="-1" relative="1" as="geometry">
            <mxPoint as="offset" />
          </mxGeometry>
        </mxCell>
        <mxCell id="G0X934RZBwC8TlWntgK0-8" style="edgeStyle=orthogonalEdgeStyle;rounded=0;orthogonalLoop=1;jettySize=auto;html=1;exitX=0.5;exitY=1;exitDx=0;exitDy=0;" edge="1" parent="1" source="xSZ6R9SKHqUaPnc-6ZZc-5" target="G0X934RZBwC8TlWntgK0-2">
          <mxGeometry relative="1" as="geometry" />
        </mxCell>
        <mxCell id="obCtLTbMXupayQUvTKE5-15" value="Run Query" style="edgeLabel;html=1;align=center;verticalAlign=middle;resizable=0;points=[];" vertex="1" connectable="0" parent="G0X934RZBwC8TlWntgK0-8">
          <mxGeometry x="0.3545" y="-2" relative="1" as="geometry">
            <mxPoint y="1" as="offset" />
          </mxGeometry>
        </mxCell>
        <mxCell id="G0X934RZBwC8TlWntgK0-9" style="edgeStyle=orthogonalEdgeStyle;rounded=0;orthogonalLoop=1;jettySize=auto;html=1;exitX=0.5;exitY=1;exitDx=0;exitDy=0;" edge="1" parent="1" source="xSZ6R9SKHqUaPnc-6ZZc-5" target="G0X934RZBwC8TlWntgK0-3">
          <mxGeometry relative="1" as="geometry" />
        </mxCell>
        <mxCell id="obCtLTbMXupayQUvTKE5-16" value="Run Query" style="edgeLabel;html=1;align=center;verticalAlign=middle;resizable=0;points=[];" vertex="1" connectable="0" parent="G0X934RZBwC8TlWntgK0-9">
          <mxGeometry x="0.8491" y="-1" relative="1" as="geometry">
            <mxPoint y="-12" as="offset" />
          </mxGeometry>
        </mxCell>
        <mxCell id="xSZ6R9SKHqUaPnc-6ZZc-5" value="Query Phase" style="rounded=1;whiteSpace=wrap;html=1;absoluteArcSize=1;arcSize=14;strokeWidth=2;fillColor=#d5e8d4;strokeColor=#82b366;gradientColor=#97d077;" parent="1" vertex="1">
          <mxGeometry x="325" y="470" width="100" height="100" as="geometry" />
        </mxCell>
        <mxCell id="G0X934RZBwC8TlWntgK0-22" style="edgeStyle=orthogonalEdgeStyle;rounded=0;orthogonalLoop=1;jettySize=auto;html=1;exitX=0.5;exitY=1;exitDx=0;exitDy=0;entryX=0.5;entryY=0;entryDx=0;entryDy=0;" edge="1" parent="1" source="G0X934RZBwC8TlWntgK0-2" target="G0X934RZBwC8TlWntgK0-5">
          <mxGeometry relative="1" as="geometry" />
        </mxCell>
        <mxCell id="G0X934RZBwC8TlWntgK0-2" value="Execute Query Phase Per Shard-2" style="rounded=1;whiteSpace=wrap;html=1;absoluteArcSize=1;arcSize=14;strokeWidth=2;fillColor=#d5e8d4;strokeColor=#82b366;gradientColor=#97d077;" vertex="1" parent="1">
          <mxGeometry x="325" y="680" width="100" height="100" as="geometry" />
        </mxCell>
        <mxCell id="G0X934RZBwC8TlWntgK0-23" style="edgeStyle=orthogonalEdgeStyle;rounded=0;orthogonalLoop=1;jettySize=auto;html=1;exitX=0.5;exitY=1;exitDx=0;exitDy=0;entryX=0.5;entryY=0;entryDx=0;entryDy=0;" edge="1" parent="1" source="G0X934RZBwC8TlWntgK0-3" target="G0X934RZBwC8TlWntgK0-5">
          <mxGeometry relative="1" as="geometry" />
        </mxCell>
        <mxCell id="G0X934RZBwC8TlWntgK0-3" value="Execute Query Phase Per Shard-3" style="rounded=1;whiteSpace=wrap;html=1;absoluteArcSize=1;arcSize=14;strokeWidth=2;fillColor=#d5e8d4;strokeColor=#82b366;gradientColor=#97d077;" vertex="1" parent="1">
          <mxGeometry x="500" y="680" width="100" height="100" as="geometry" />
        </mxCell>
        <mxCell id="G0X934RZBwC8TlWntgK0-10" style="edgeStyle=orthogonalEdgeStyle;rounded=0;orthogonalLoop=1;jettySize=auto;html=1;exitX=0.5;exitY=1;exitDx=0;exitDy=0;entryX=0.5;entryY=0;entryDx=0;entryDy=0;" edge="1" parent="1" source="G0X934RZBwC8TlWntgK0-4" target="G0X934RZBwC8TlWntgK0-5">
          <mxGeometry relative="1" as="geometry" />
        </mxCell>
        <mxCell id="G0X934RZBwC8TlWntgK0-35" value="Doc Ids and Score" style="edgeLabel;html=1;align=center;verticalAlign=middle;resizable=0;points=[];" vertex="1" connectable="0" parent="G0X934RZBwC8TlWntgK0-10">
          <mxGeometry x="0.7091" y="-3" relative="1" as="geometry">
            <mxPoint y="4" as="offset" />
          </mxGeometry>
        </mxCell>
        <mxCell id="G0X934RZBwC8TlWntgK0-4" value="Execute Query Phase Shard-1" style="rounded=1;whiteSpace=wrap;html=1;absoluteArcSize=1;arcSize=14;strokeWidth=2;fillColor=#d5e8d4;strokeColor=#82b366;gradientColor=#97d077;" vertex="1" parent="1">
          <mxGeometry x="150" y="680" width="100" height="100" as="geometry" />
        </mxCell>
        <mxCell id="G0X934RZBwC8TlWntgK0-32" style="edgeStyle=orthogonalEdgeStyle;rounded=0;orthogonalLoop=1;jettySize=auto;html=1;exitX=0.5;exitY=1;exitDx=0;exitDy=0;" edge="1" parent="1" source="G0X934RZBwC8TlWntgK0-5" target="G0X934RZBwC8TlWntgK0-31">
          <mxGeometry relative="1" as="geometry" />
        </mxCell>
        <mxCell id="G0X934RZBwC8TlWntgK0-5" value="Query Phase Done" style="rounded=1;whiteSpace=wrap;html=1;absoluteArcSize=1;arcSize=14;strokeWidth=2;fillColor=#e6d0de;strokeColor=#996185;gradientColor=#d5739d;" vertex="1" parent="1">
          <mxGeometry x="325" y="880" width="100" height="100" as="geometry" />
        </mxCell>
        <mxCell id="G0X934RZBwC8TlWntgK0-16" style="edgeStyle=orthogonalEdgeStyle;rounded=0;orthogonalLoop=1;jettySize=auto;html=1;exitX=0.5;exitY=1;exitDx=0;exitDy=0;" edge="1" parent="1" source="G0X934RZBwC8TlWntgK0-13" target="G0X934RZBwC8TlWntgK0-15">
          <mxGeometry relative="1" as="geometry" />
        </mxCell>
        <mxCell id="G0X934RZBwC8TlWntgK0-17" value="No" style="edgeLabel;html=1;align=center;verticalAlign=middle;resizable=0;points=[];" vertex="1" connectable="0" parent="G0X934RZBwC8TlWntgK0-16">
          <mxGeometry x="-0.1182" y="-1" relative="1" as="geometry">
            <mxPoint y="1" as="offset" />
          </mxGeometry>
        </mxCell>
        <mxCell id="G0X934RZBwC8TlWntgK0-19" style="edgeStyle=orthogonalEdgeStyle;rounded=0;orthogonalLoop=1;jettySize=auto;html=1;exitX=1;exitY=0.5;exitDx=0;exitDy=0;entryX=0;entryY=0.5;entryDx=0;entryDy=0;" edge="1" parent="1" source="G0X934RZBwC8TlWntgK0-13" target="G0X934RZBwC8TlWntgK0-18">
          <mxGeometry relative="1" as="geometry" />
        </mxCell>
        <mxCell id="G0X934RZBwC8TlWntgK0-20" value="Yes" style="edgeLabel;html=1;align=center;verticalAlign=middle;resizable=0;points=[];" vertex="1" connectable="0" parent="G0X934RZBwC8TlWntgK0-19">
          <mxGeometry x="-0.0111" relative="1" as="geometry">
            <mxPoint as="offset" />
          </mxGeometry>
        </mxCell>
        <mxCell id="G0X934RZBwC8TlWntgK0-13" value="Run Search Phase Processors?" style="rhombus;whiteSpace=wrap;html=1;fillColor=#f8cecc;strokeColor=#b85450;gradientColor=#ea6b66;" vertex="1" parent="1">
          <mxGeometry x="315" y="1150" width="120" height="120" as="geometry" />
        </mxCell>
        <mxCell id="G0X934RZBwC8TlWntgK0-25" style="edgeStyle=orthogonalEdgeStyle;rounded=0;orthogonalLoop=1;jettySize=auto;html=1;exitX=0.5;exitY=1;exitDx=0;exitDy=0;" edge="1" parent="1" source="G0X934RZBwC8TlWntgK0-15" target="G0X934RZBwC8TlWntgK0-24">
          <mxGeometry relative="1" as="geometry" />
        </mxCell>
        <mxCell id="G0X934RZBwC8TlWntgK0-15" value="Fetch Phase" style="rounded=1;whiteSpace=wrap;html=1;absoluteArcSize=1;arcSize=14;strokeWidth=2;fillColor=#d5e8d4;strokeColor=#82b366;gradientColor=#97d077;" vertex="1" parent="1">
          <mxGeometry x="325" y="1320" width="100" height="100" as="geometry" />
        </mxCell>
        <mxCell id="G0X934RZBwC8TlWntgK0-21" style="edgeStyle=orthogonalEdgeStyle;rounded=0;orthogonalLoop=1;jettySize=auto;html=1;exitX=0.5;exitY=1;exitDx=0;exitDy=0;entryX=1;entryY=0.5;entryDx=0;entryDy=0;" edge="1" parent="1" source="G0X934RZBwC8TlWntgK0-18" target="G0X934RZBwC8TlWntgK0-15">
          <mxGeometry relative="1" as="geometry" />
        </mxCell>
        <mxCell id="G0X934RZBwC8TlWntgK0-18" value="Run Search Phase Processors&lt;br&gt;sequentially" style="rounded=1;whiteSpace=wrap;html=1;absoluteArcSize=1;arcSize=14;strokeWidth=2;fillColor=#f8cecc;strokeColor=#b85450;gradientColor=#ea6b66;" vertex="1" parent="1">
          <mxGeometry x="520" y="1160" width="100" height="100" as="geometry" />
        </mxCell>
        <mxCell id="G0X934RZBwC8TlWntgK0-27" style="edgeStyle=orthogonalEdgeStyle;rounded=0;orthogonalLoop=1;jettySize=auto;html=1;exitX=0.5;exitY=1;exitDx=0;exitDy=0;exitPerimeter=0;entryX=0.5;entryY=0;entryDx=0;entryDy=0;entryPerimeter=0;" edge="1" parent="1" source="G0X934RZBwC8TlWntgK0-24" target="G0X934RZBwC8TlWntgK0-26">
          <mxGeometry relative="1" as="geometry" />
        </mxCell>
        <mxCell id="G0X934RZBwC8TlWntgK0-24" value="Search Response" style="strokeWidth=2;html=1;shape=mxgraph.flowchart.start_1;whiteSpace=wrap;fillColor=#f5f5f5;fontColor=#333333;strokeColor=#666666;" vertex="1" parent="1">
          <mxGeometry x="325" y="1460" width="100" height="60" as="geometry" />
        </mxCell>
        <mxCell id="G0X934RZBwC8TlWntgK0-26" value="End" style="strokeWidth=2;html=1;shape=mxgraph.flowchart.start_1;whiteSpace=wrap;" vertex="1" parent="1">
          <mxGeometry x="325" y="1560" width="100" height="60" as="geometry" />
        </mxCell>
        <mxCell id="G0X934RZBwC8TlWntgK0-33" style="edgeStyle=orthogonalEdgeStyle;rounded=0;orthogonalLoop=1;jettySize=auto;html=1;exitX=0.5;exitY=1;exitDx=0;exitDy=0;" edge="1" parent="1" source="G0X934RZBwC8TlWntgK0-31" target="G0X934RZBwC8TlWntgK0-13">
          <mxGeometry relative="1" as="geometry" />
        </mxCell>
        <mxCell id="G0X934RZBwC8TlWntgK0-31" value="Search Pipeline Service" style="rounded=1;whiteSpace=wrap;html=1;absoluteArcSize=1;arcSize=14;strokeWidth=2;fillColor=#e6d0de;strokeColor=#996185;gradientColor=#d5739d;" vertex="1" parent="1">
          <mxGeometry x="325" y="1010" width="100" height="100" as="geometry" />
        </mxCell>
        <mxCell id="obCtLTbMXupayQUvTKE5-2" value="&lt;b&gt;&lt;font style=&quot;font-size: 14px;&quot;&gt;Legends&lt;/font&gt;&lt;/b&gt;" style="rounded=0;whiteSpace=wrap;html=1;dashed=1;dashPattern=1 1;fontSize=12;verticalAlign=top;fillColor=#f5f5f5;strokeColor=#666666;gradientColor=#b3b3b3;" vertex="1" parent="1">
          <mxGeometry x="700" y="650" width="250" height="150" as="geometry" />
        </mxCell>
        <mxCell id="obCtLTbMXupayQUvTKE5-3" value="" style="rounded=0;whiteSpace=wrap;html=1;dashed=1;dashPattern=1 1;fontSize=12;fillColor=#e6d0de;strokeColor=#996185;gradientColor=#d5739d;" vertex="1" parent="1">
          <mxGeometry x="713" y="687" width="30" height="20" as="geometry" />
        </mxCell>
        <mxCell id="obCtLTbMXupayQUvTKE5-4" value="Changes in components" style="text;html=1;strokeColor=none;fillColor=none;align=left;verticalAlign=middle;whiteSpace=wrap;rounded=0;dashed=1;dashPattern=1 1;fontSize=12;" vertex="1" parent="1">
          <mxGeometry x="753" y="682" width="170" height="30" as="geometry" />
        </mxCell>
        <mxCell id="obCtLTbMXupayQUvTKE5-5" value="" style="rounded=0;whiteSpace=wrap;html=1;dashed=1;dashPattern=1 1;fontSize=12;fillColor=#f8cecc;strokeColor=#b85450;gradientColor=#ea6b66;" vertex="1" parent="1">
          <mxGeometry x="713" y="727" width="30" height="20" as="geometry" />
        </mxCell>
        <mxCell id="obCtLTbMXupayQUvTKE5-6" value="New Component to be added" style="text;html=1;strokeColor=none;fillColor=none;align=left;verticalAlign=middle;whiteSpace=wrap;rounded=0;dashed=1;dashPattern=1 1;fontSize=12;" vertex="1" parent="1">
          <mxGeometry x="753" y="722" width="170" height="30" as="geometry" />
        </mxCell>
        <mxCell id="obCtLTbMXupayQUvTKE5-7" value="" style="rounded=0;whiteSpace=wrap;html=1;dashed=1;dashPattern=1 1;fontSize=12;fillColor=#d5e8d4;strokeColor=#82b366;gradientColor=#97d077;" vertex="1" parent="1">
          <mxGeometry x="713" y="767" width="30" height="20" as="geometry" />
        </mxCell>
        <mxCell id="obCtLTbMXupayQUvTKE5-8" value="No changes expected" style="text;html=1;strokeColor=none;fillColor=none;align=left;verticalAlign=middle;whiteSpace=wrap;rounded=0;dashed=1;dashPattern=1 1;fontSize=12;" vertex="1" parent="1">
          <mxGeometry x="753" y="762" width="170" height="30" as="geometry" />
        </mxCell>
        <mxCell id="obCtLTbMXupayQUvTKE5-9" value="&lt;b&gt;Coordinator Node&lt;/b&gt;" style="text;html=1;strokeColor=none;fillColor=none;align=center;verticalAlign=middle;whiteSpace=wrap;rounded=0;" vertex="1" parent="1">
          <mxGeometry x="510" y="370" width="130" height="50" as="geometry" />
        </mxCell>
        <mxCell id="obCtLTbMXupayQUvTKE5-10" value="&lt;b&gt;Coordinator Node&lt;/b&gt;" style="text;html=1;strokeColor=none;fillColor=none;align=center;verticalAlign=middle;whiteSpace=wrap;rounded=0;" vertex="1" parent="1">
          <mxGeometry x="470" y="890" width="130" height="50" as="geometry" />
        </mxCell>
        <mxCell id="obCtLTbMXupayQUvTKE5-11" value="&lt;b&gt;Data Nodes&lt;/b&gt;" style="text;html=1;strokeColor=none;fillColor=none;align=center;verticalAlign=middle;whiteSpace=wrap;rounded=0;" vertex="1" parent="1">
          <mxGeometry x="560" y="620" width="130" height="50" as="geometry" />
        </mxCell>
      </root>
    </mxGraphModel>
  </diagram>
  <diagram id="dHCuhqSBG5QOqPjYTWGY" name="Simple Current arch">
    <mxGraphModel dx="2924" dy="1126" grid="1" gridSize="10" guides="1" tooltips="1" connect="1" arrows="1" fold="1" page="1" pageScale="1" pageWidth="850" pageHeight="1100" math="0" shadow="0">
      <root>
        <mxCell id="0" />
        <mxCell id="1" parent="0" />
        <mxCell id="afIJH4ncMVynOx2SNxHb-1" value="&lt;font style=&quot;font-size: 16px;&quot;&gt;&lt;b&gt;OpenSearch Cluster&lt;/b&gt;&lt;/font&gt;" style="rounded=0;whiteSpace=wrap;html=1;fontSize=12;dashed=1;verticalAlign=top;fillColor=#f5f5f5;strokeColor=#666666;gradientColor=#b3b3b3;" vertex="1" parent="1">
          <mxGeometry x="70" y="110" width="970" height="480" as="geometry" />
        </mxCell>
        <mxCell id="afIJH4ncMVynOx2SNxHb-2" style="edgeStyle=orthogonalEdgeStyle;rounded=0;orthogonalLoop=1;jettySize=auto;html=1;exitX=0;exitY=0.75;exitDx=0;exitDy=0;entryX=1;entryY=1;entryDx=0;entryDy=0;entryPerimeter=0;fontSize=12;" edge="1" parent="1" source="afIJH4ncMVynOx2SNxHb-4" target="afIJH4ncMVynOx2SNxHb-22">
          <mxGeometry relative="1" as="geometry">
            <Array as="points">
              <mxPoint x="10" y="458" />
              <mxPoint x="10" y="330" />
            </Array>
          </mxGeometry>
        </mxCell>
        <mxCell id="afIJH4ncMVynOx2SNxHb-3" value="8. Search &lt;br&gt;response&amp;nbsp;&lt;br&gt;with normalized&lt;br&gt;and combined&amp;nbsp;&lt;br&gt;results" style="edgeLabel;html=1;align=center;verticalAlign=middle;resizable=0;points=[];fontSize=12;" vertex="1" connectable="0" parent="afIJH4ncMVynOx2SNxHb-2">
          <mxGeometry x="0.0367" y="-1" relative="1" as="geometry">
            <mxPoint as="offset" />
          </mxGeometry>
        </mxCell>
        <mxCell id="afIJH4ncMVynOx2SNxHb-4" value="&lt;b&gt;&lt;font style=&quot;font-size: 14px;&quot;&gt;Coordinator Node&lt;/font&gt;&lt;/b&gt;" style="rounded=0;whiteSpace=wrap;html=1;horizontal=1;verticalAlign=top;dashed=1;fillColor=#d5e8d4;strokeColor=#82b366;gradientColor=#97d077;" vertex="1" parent="1">
          <mxGeometry x="120" y="150" width="210" height="410" as="geometry" />
        </mxCell>
        <mxCell id="afIJH4ncMVynOx2SNxHb-5" style="edgeStyle=orthogonalEdgeStyle;rounded=0;orthogonalLoop=1;jettySize=auto;html=1;exitX=0;exitY=0.5;exitDx=0;exitDy=0;entryX=1;entryY=0.75;entryDx=0;entryDy=0;fontSize=16;" edge="1" parent="1" source="afIJH4ncMVynOx2SNxHb-8" target="afIJH4ncMVynOx2SNxHb-13">
          <mxGeometry relative="1" as="geometry" />
        </mxCell>
        <mxCell id="afIJH4ncMVynOx2SNxHb-6" value="&lt;span style=&quot;font-size: 12px;&quot;&gt;3. Combined &lt;br&gt;Query Results&lt;br&gt;from different data&lt;br&gt;nodes&lt;br&gt;&lt;/span&gt;" style="edgeLabel;html=1;align=center;verticalAlign=middle;resizable=0;points=[];fontSize=16;" vertex="1" connectable="0" parent="afIJH4ncMVynOx2SNxHb-5">
          <mxGeometry x="-0.0633" relative="1" as="geometry">
            <mxPoint x="1" y="1" as="offset" />
          </mxGeometry>
        </mxCell>
        <mxCell id="afIJH4ncMVynOx2SNxHb-7" value="7.return source &lt;br&gt;for doc ids" style="edgeStyle=orthogonalEdgeStyle;rounded=0;orthogonalLoop=1;jettySize=auto;html=1;exitX=-0.002;exitY=0.925;exitDx=0;exitDy=0;entryX=1;entryY=0.75;entryDx=0;entryDy=0;fontSize=12;exitPerimeter=0;" edge="1" parent="1" source="afIJH4ncMVynOx2SNxHb-8" target="afIJH4ncMVynOx2SNxHb-16">
          <mxGeometry x="-0.0659" y="-1" relative="1" as="geometry">
            <mxPoint as="offset" />
          </mxGeometry>
        </mxCell>
        <mxCell id="afIJH4ncMVynOx2SNxHb-8" value="&lt;b&gt;&lt;font style=&quot;font-size: 14px;&quot;&gt;Data Nodes&lt;/font&gt;&lt;/b&gt;" style="rounded=0;whiteSpace=wrap;html=1;verticalAlign=top;dashed=1;fillColor=#d5e8d4;strokeColor=#82b366;gradientColor=#97d077;" vertex="1" parent="1">
          <mxGeometry x="540" y="200" width="470" height="320" as="geometry" />
        </mxCell>
        <mxCell id="afIJH4ncMVynOx2SNxHb-9" style="edgeStyle=orthogonalEdgeStyle;rounded=0;orthogonalLoop=1;jettySize=auto;html=1;exitX=1;exitY=0.25;exitDx=0;exitDy=0;entryX=0.25;entryY=0;entryDx=0;entryDy=0;fontSize=14;" edge="1" parent="1" source="afIJH4ncMVynOx2SNxHb-13" target="afIJH4ncMVynOx2SNxHb-8">
          <mxGeometry relative="1" as="geometry" />
        </mxCell>
        <mxCell id="afIJH4ncMVynOx2SNxHb-10" value="&lt;span style=&quot;font-size: 12px;&quot;&gt;2. Execute bool&lt;br&gt;Query&lt;/span&gt;" style="edgeLabel;html=1;align=center;verticalAlign=middle;resizable=0;points=[];fontSize=16;" vertex="1" connectable="0" parent="afIJH4ncMVynOx2SNxHb-9">
          <mxGeometry x="-0.1556" y="-1" relative="1" as="geometry">
            <mxPoint x="12" y="-1" as="offset" />
          </mxGeometry>
        </mxCell>
        <mxCell id="afIJH4ncMVynOx2SNxHb-60" style="edgeStyle=orthogonalEdgeStyle;rounded=0;orthogonalLoop=1;jettySize=auto;html=1;exitX=0.5;exitY=1;exitDx=0;exitDy=0;" edge="1" parent="1" source="afIJH4ncMVynOx2SNxHb-13" target="afIJH4ncMVynOx2SNxHb-16">
          <mxGeometry relative="1" as="geometry" />
        </mxCell>
        <mxCell id="afIJH4ncMVynOx2SNxHb-61" value="DocIds" style="edgeLabel;html=1;align=center;verticalAlign=middle;resizable=0;points=[];" vertex="1" connectable="0" parent="afIJH4ncMVynOx2SNxHb-60">
          <mxGeometry x="-0.1059" y="-2" relative="1" as="geometry">
            <mxPoint as="offset" />
          </mxGeometry>
        </mxCell>
        <mxCell id="afIJH4ncMVynOx2SNxHb-13" value="Query Phase" style="rounded=0;whiteSpace=wrap;html=1;fillColor=#ffcd28;strokeColor=#d79b00;gradientColor=#ffa500;" vertex="1" parent="1">
          <mxGeometry x="165" y="210" width="120" height="60" as="geometry" />
        </mxCell>
        <mxCell id="afIJH4ncMVynOx2SNxHb-14" style="edgeStyle=orthogonalEdgeStyle;rounded=0;orthogonalLoop=1;jettySize=auto;html=1;exitX=1;exitY=0.25;exitDx=0;exitDy=0;entryX=0;entryY=0.75;entryDx=0;entryDy=0;fontSize=12;" edge="1" parent="1" source="afIJH4ncMVynOx2SNxHb-16" target="afIJH4ncMVynOx2SNxHb-8">
          <mxGeometry relative="1" as="geometry" />
        </mxCell>
        <mxCell id="afIJH4ncMVynOx2SNxHb-15" value="6. Fetch Source" style="edgeLabel;html=1;align=center;verticalAlign=middle;resizable=0;points=[];fontSize=12;" vertex="1" connectable="0" parent="afIJH4ncMVynOx2SNxHb-14">
          <mxGeometry x="-0.5065" y="1" relative="1" as="geometry">
            <mxPoint x="46" y="-14" as="offset" />
          </mxGeometry>
        </mxCell>
        <mxCell id="afIJH4ncMVynOx2SNxHb-16" value="Fetch Phase" style="rounded=0;whiteSpace=wrap;html=1;fillColor=#ffcd28;strokeColor=#d79b00;gradientColor=#ffa500;" vertex="1" parent="1">
          <mxGeometry x="165" y="440" width="120" height="60" as="geometry" />
        </mxCell>
        <mxCell id="afIJH4ncMVynOx2SNxHb-20" style="edgeStyle=orthogonalEdgeStyle;rounded=0;orthogonalLoop=1;jettySize=auto;html=1;exitX=0.5;exitY=0.5;exitDx=0;exitDy=0;exitPerimeter=0;entryX=0;entryY=0.25;entryDx=0;entryDy=0;" edge="1" parent="1" source="afIJH4ncMVynOx2SNxHb-22" target="afIJH4ncMVynOx2SNxHb-4">
          <mxGeometry relative="1" as="geometry" />
        </mxCell>
        <mxCell id="afIJH4ncMVynOx2SNxHb-21" value="&lt;font style=&quot;font-size: 12px;&quot;&gt;1. _search&lt;/font&gt;" style="edgeLabel;html=1;align=center;verticalAlign=middle;resizable=0;points=[];fontSize=14;labelBackgroundColor=none;" vertex="1" connectable="0" parent="afIJH4ncMVynOx2SNxHb-20">
          <mxGeometry x="0.0843" relative="1" as="geometry">
            <mxPoint as="offset" />
          </mxGeometry>
        </mxCell>
        <mxCell id="afIJH4ncMVynOx2SNxHb-22" value="Clients" style="shape=umlActor;verticalLabelPosition=bottom;verticalAlign=top;html=1;outlineConnect=0;" vertex="1" parent="1">
          <mxGeometry x="-120" y="270" width="30" height="60" as="geometry" />
        </mxCell>
        <mxCell id="afIJH4ncMVynOx2SNxHb-27" value="&lt;font style=&quot;font-size: 12px;&quot;&gt;Data Node-1&lt;/font&gt;" style="rounded=0;whiteSpace=wrap;html=1;fontSize=14;fillColor=#e6d0de;strokeColor=#996185;gradientColor=#d5739d;verticalAlign=top;" vertex="1" parent="1">
          <mxGeometry x="570" y="242.5" width="120" height="50" as="geometry" />
        </mxCell>
        <mxCell id="afIJH4ncMVynOx2SNxHb-44" style="edgeStyle=orthogonalEdgeStyle;rounded=0;orthogonalLoop=1;jettySize=auto;html=1;exitX=0;exitY=0;exitDx=0;exitDy=31.25;exitPerimeter=0;entryX=1;entryY=0.5;entryDx=0;entryDy=0;" edge="1" parent="1" source="afIJH4ncMVynOx2SNxHb-33" target="afIJH4ncMVynOx2SNxHb-27">
          <mxGeometry relative="1" as="geometry" />
        </mxCell>
        <mxCell id="afIJH4ncMVynOx2SNxHb-47" value="Query1" style="edgeLabel;html=1;align=center;verticalAlign=middle;resizable=0;points=[];" vertex="1" connectable="0" parent="afIJH4ncMVynOx2SNxHb-44">
          <mxGeometry x="-0.4665" y="1" relative="1" as="geometry">
            <mxPoint as="offset" />
          </mxGeometry>
        </mxCell>
        <mxCell id="afIJH4ncMVynOx2SNxHb-46" style="edgeStyle=orthogonalEdgeStyle;rounded=0;orthogonalLoop=1;jettySize=auto;html=1;exitX=0;exitY=1;exitDx=0;exitDy=-15;exitPerimeter=0;entryX=1;entryY=0.5;entryDx=0;entryDy=0;" edge="1" parent="1" source="afIJH4ncMVynOx2SNxHb-33" target="afIJH4ncMVynOx2SNxHb-27">
          <mxGeometry relative="1" as="geometry" />
        </mxCell>
        <mxCell id="afIJH4ncMVynOx2SNxHb-48" value="Query2" style="edgeLabel;html=1;align=center;verticalAlign=middle;resizable=0;points=[];" vertex="1" connectable="0" parent="afIJH4ncMVynOx2SNxHb-46">
          <mxGeometry x="-0.5535" y="3" relative="1" as="geometry">
            <mxPoint as="offset" />
          </mxGeometry>
        </mxCell>
        <mxCell id="afIJH4ncMVynOx2SNxHb-33" value="Segments" style="shape=cylinder3;whiteSpace=wrap;html=1;boundedLbl=1;backgroundOutline=1;size=15;fontSize=12;fillColor=#fff2cc;strokeColor=#d6b656;gradientColor=#ffd966;" vertex="1" parent="1">
          <mxGeometry x="900" y="220" width="90" height="95" as="geometry" />
        </mxCell>
        <mxCell id="afIJH4ncMVynOx2SNxHb-54" value="&lt;font style=&quot;font-size: 12px;&quot;&gt;Data Node-2&lt;/font&gt;" style="rounded=0;whiteSpace=wrap;html=1;fontSize=14;fillColor=#e6d0de;strokeColor=#996185;gradientColor=#d5739d;verticalAlign=top;" vertex="1" parent="1">
          <mxGeometry x="570" y="377.5" width="120" height="50" as="geometry" />
        </mxCell>
        <mxCell id="afIJH4ncMVynOx2SNxHb-55" style="edgeStyle=orthogonalEdgeStyle;rounded=0;orthogonalLoop=1;jettySize=auto;html=1;exitX=0;exitY=0;exitDx=0;exitDy=31.25;exitPerimeter=0;entryX=1;entryY=0.5;entryDx=0;entryDy=0;" edge="1" parent="1" source="afIJH4ncMVynOx2SNxHb-59" target="afIJH4ncMVynOx2SNxHb-54">
          <mxGeometry relative="1" as="geometry" />
        </mxCell>
        <mxCell id="afIJH4ncMVynOx2SNxHb-56" value="Query1" style="edgeLabel;html=1;align=center;verticalAlign=middle;resizable=0;points=[];" vertex="1" connectable="0" parent="afIJH4ncMVynOx2SNxHb-55">
          <mxGeometry x="-0.4665" y="1" relative="1" as="geometry">
            <mxPoint as="offset" />
          </mxGeometry>
        </mxCell>
        <mxCell id="afIJH4ncMVynOx2SNxHb-57" style="edgeStyle=orthogonalEdgeStyle;rounded=0;orthogonalLoop=1;jettySize=auto;html=1;exitX=0;exitY=1;exitDx=0;exitDy=-15;exitPerimeter=0;entryX=1;entryY=0.5;entryDx=0;entryDy=0;" edge="1" parent="1" source="afIJH4ncMVynOx2SNxHb-59" target="afIJH4ncMVynOx2SNxHb-54">
          <mxGeometry relative="1" as="geometry" />
        </mxCell>
        <mxCell id="afIJH4ncMVynOx2SNxHb-58" value="Query2" style="edgeLabel;html=1;align=center;verticalAlign=middle;resizable=0;points=[];" vertex="1" connectable="0" parent="afIJH4ncMVynOx2SNxHb-57">
          <mxGeometry x="-0.5535" y="3" relative="1" as="geometry">
            <mxPoint as="offset" />
          </mxGeometry>
        </mxCell>
        <mxCell id="afIJH4ncMVynOx2SNxHb-59" value="Segments" style="shape=cylinder3;whiteSpace=wrap;html=1;boundedLbl=1;backgroundOutline=1;size=15;fontSize=12;fillColor=#fff2cc;strokeColor=#d6b656;gradientColor=#ffd966;" vertex="1" parent="1">
          <mxGeometry x="900" y="355" width="90" height="95" as="geometry" />
        </mxCell>
      </root>
    </mxGraphModel>
  </diagram>
</mxfile>
